<?xml version="1.0" encoding="UTF-8"?>
<svg width="552px" height="330px" viewBox="0 0 552 330" version="1.1" xmlns="http://www.w3.org/2000/svg" xmlns:xlink="http://www.w3.org/1999/xlink">
    <title>illustratons/Student-Header-illustration</title>
    <defs>
        <rect id="path-1" x="0" y="0" width="551" height="330"></rect>
    </defs>
    <g id="illustratons/Student-Header-illustration" stroke="none" stroke-width="1" fill="none" fill-rule="evenodd">
        <g id="Group">
            <mask id="mask-2" fill="white">
                <use xlink:href="#path-1"></use>
            </mask>
            <g id="Mask"></g>
            <g mask="url(#mask-2)">
                <g transform="translate(-13.959104, 1.000000)">
                    <g id="Shadow-man" opacity="0.2" transform="translate(364.814244, 39.000000)">
                        <g id="Group-6" transform="translate(100.322430, 137.369159) scale(-1, 1) translate(-100.322430, -137.369159) translate(0.000000, 61.644860)" stroke-linejoin="round">
                            <g id="Group-3" transform="translate(0.000000, 24.476636)" fill="#041F74" stroke="#041F74">
                                <path d="M61.6448598,1.42108547e-14 L86.1214953,2.74287084 L109.691589,6.40003195 L109.693515,6.42510625 C116.403276,6.79645042 122.033166,11.25608 124.175915,17.3761475 L124.196262,17.3715153 L124.245851,17.580184 C124.562175,18.5231854 124.796061,19.5045113 124.938858,20.5154372 L131.51029,48.355032 L164.990654,10.9714833 L179.495327,25.6001278 L136.218748,85.6158875 C133.756828,89.1324951 129.695735,91.4290279 125.102804,91.4290279 C120.889923,91.4290279 117.124506,89.4968323 114.630252,86.4631804 L117.130841,126.971963 L16.9439252,126.971963 L34.4485981,6.40003195 L61.6448598,1.42108547e-14 Z" id="Combined-Shape"></path>
                                <path d="M37.1682243,5.43925234 C46.1802726,5.43925234 53.4859813,12.823517 53.4859813,21.9324691 C53.4859813,25.2260655 52.530843,28.2941786 50.8852609,30.8692677 L32.495,70.7102523 L83.4018692,70.7102804 L76.1495327,90.6542056 L19.6847669,90.6536196 C18.5982641,90.883993 17.472006,91.0051251 16.317757,91.0051251 C7.30570866,91.0051251 0,83.6208604 0,74.5119084 C0,71.7441034 0.674522562,69.1355356 1.86648067,66.8449812 L1.81308411,66.8306703 L21.4208292,17.5942045 C23.3051649,10.5898931 29.6415952,5.43925234 37.1682243,5.43925234 Z" id="Combined-Shape"></path>
                            </g>
                            <g id="Group-14" transform="translate(165.644860, 0.000000)" fill="#CEDAF3" stroke="#CEDAF3">
                                <path d="M11.6799574,22.1650729 L23.0055977,1.63734996 C23.8262782,0.149866525 25.6745794,-0.424901712 27.1940855,0.334851339 C28.6769604,1.07628883 29.2780143,2.87945036 28.5365768,4.36232533 C28.5308399,4.37379903 28.5250296,4.38523583 28.5191462,4.39663504 L17.032708,26.6516089 C16.3130851,28.0458784 14.5994367,28.5927875 13.2051672,27.8731645 C13.0213062,27.7782685 12.8483622,27.663571 12.6894126,27.531113 C11.1105682,26.2154094 10.6871394,23.9645556 11.6799574,22.1650729 Z" id="Rectangle"></path>
                                <path d="M9.06324434,14.3862532 C9.99925195,14.3862532 10.8524292,14.7408923 11.4957385,15.323133 L11.6015621,15.2927953 L28.1006275,32.5170943 L12.6894126,48.8348513 L0.904365838,37.0498046 L5.43707612,17.1058794 L5.56098759,17.0691093 C5.97617469,15.5238093 7.38686429,14.3862532 9.06324434,14.3862532 Z" id="Combined-Shape"></path>
                                <path d="M18.4156727,23.4990748 L23.922278,13.4279651 C24.7364277,11.938955 26.5827366,11.3609526 28.1006275,12.1198981 C29.5835025,12.8613356 30.1845563,14.6644971 29.4431189,16.1473721 C29.437382,16.1588458 29.4315717,16.1702826 29.4256882,16.1816818 L22.0494349,30.4731726 L22.0494349,30.4731726 C19.4515905,30.1868716 17.5777144,27.8488097 17.8640155,25.2509654 C17.9317253,24.6365785 18.1191404,24.0414072 18.4156727,23.4990748 Z" id="Rectangle"></path>
                                <path d="M23.5629225,27.7101426 L28.44485,18.861649 C29.2655305,17.3741656 31.1138317,16.7993974 32.6333378,17.5591504 C34.1353459,18.3101544 34.7441549,20.1365816 33.9931509,21.6385897 L29.3243205,30.9762505 C28.531406,32.5620794 26.6030536,33.2048635 25.0172247,32.4119491 C24.9679968,32.3873351 24.9194101,32.3614593 24.8715126,32.3343473 C23.2419087,31.41192 22.6583312,29.3497144 23.5629225,27.7101426 Z" id="Rectangle"></path>
                                <path d="M0.904365838,37.0498046 L5.43707612,16.6526083 C5.78225738,15.7848529 5.95484801,15.3509751 5.95484801,15.3509751 C7.24214424,13.8168352 9.52937013,13.6167289 11.06351,14.9040251 L20.7858311,23.0620211 C22.319971,24.3493173 22.5200773,26.6365432 21.2327811,28.1706831 C19.9454849,29.704823 17.658259,29.9049294 16.1241191,28.6176332 L9.47968722,23.0422928" id="Rectangle" stroke-linecap="round"></path>
                            </g>
                        </g>
                        <path d="M146.967878,186 C163.628983,186 177.135476,219.431458 177.135476,236 C177.135476,236.334738 177.129963,236.668196 177.119023,237.000289 L177.14486,237 L166.740526,382 L123.139526,382 L132.57186,276.834 L111.398526,382 L51.8915265,382 L91.1448598,198 L131.341461,202.466179 C134.374306,193.145213 139.265343,186 146.967878,186 Z" id="Combined-Shape" stroke="#041F74" stroke-width="2" fill="#041F74" stroke-linejoin="round"></path>
                        <g id="Group-13" transform="translate(91.373832, 0.000000)" fill="#041F74">
                            <path d="M40.7943925,71.6168224 C44.8171975,71.6168224 48.4028621,73.4884427 50.7281123,76.4084093 C49.1049823,77.5580603 48.046729,79.4498385 48.046729,81.588785 C48.046729,84.6164004 50.166999,87.1488001 53.0036928,87.7821379 C51.4942786,93.1025769 46.5994815,97 40.7943925,97 C34.6688088,97 29.5568047,92.6603494 28.3650785,86.8877465 C30.3020905,86.0812296 31.6630475,84.1710006 31.6630475,81.942903 C31.6630475,80.3347517 30.9540743,78.8921899 29.8316367,77.9107266 C32.0326232,74.1458335 36.1181668,71.6168224 40.7943925,71.6168224 Z" id="Combined-Shape" stroke="#041F74" stroke-linejoin="round"></path>
                            <path d="M41.7009346,97 C47.7729699,97 52.7724586,92.4078818 53.4159557,86.5070903 L56.6669267,87.0674523 L58.9252336,94.388779 L52.9880363,105.986591 L42.6074766,97 L35.5133068,107.878505 L24.4766355,93.6891508 L25.3963581,87.0674523 L29.9508873,86.1300111 C30.4178833,92.2110829 35.5001532,97 41.7009346,97 Z" id="Combined-Shape" stroke="#041F74" stroke-linejoin="round"></path>
                            <path d="M33.0060527,80.0128687 C45.3312821,80.0128687 55.3228546,70.0212961 55.3228546,57.6960667 C55.3228546,56.542894 56.5133384,51.7014744 59.1334303,48.6845734 C61.7535221,45.6676724 62.1238816,45.2107168 61.9076888,41.7023587 C61.5357421,35.6664389 57.2224175,31.3774408 51.2479728,27.2838398 C45.273528,23.1902388 38.9112792,27.9403308 33.0060527,27.9403308 C26.3113721,27.9403308 20.3051959,23.4492343 16.2147234,28.11771 C12.774439,32.0441229 10.6892507,52.0655179 10.6892507,57.6960667 C10.6892507,70.0212961 20.6808233,80.0128687 33.0060527,80.0128687 Z" id="Oval" stroke="#041F74" stroke-linejoin="round" transform="translate(36.324514, 52.816607) scale(-1, 1) translate(-36.324514, -52.816607) "></path>
                            <path d="M46.5784973,0 C50.3804552,0 53.462551,3.08209584 53.462551,6.88405374 C53.462551,6.89345123 53.4625322,6.90284433 53.4624946,6.91223299 C54.3418905,5.51644602 55.8974164,4.58936916 57.6694728,4.58936916 C60.4153312,4.58936916 62.6412893,6.81532727 62.6412893,9.56118575 C62.6412893,9.97435231 62.5908916,10.3757479 62.4959083,10.7595603 C63.8652834,10.9815057 64.9904311,11.9317374 65.4620999,13.1998626 C65.9012219,13.0716559 66.3667236,13.0032126 66.8482111,13.0032126 C69.5940696,13.0032126 71.8200277,15.2291707 71.8200277,17.9750292 C71.8200277,19.3539385 71.2586798,20.601738 70.35204,21.5023717 C70.7949739,22.125869 71.0551328,22.8884232 71.0551328,23.7117407 C71.0551328,23.9743611 71.0286624,24.2307991 70.978244,24.478532 L71.0551328,24.4766355 C73.1673316,24.4766355 74.8796071,26.188911 74.8796071,28.3011098 C74.8796071,30.4133086 73.1673316,32.1255841 71.0551328,32.1255841 C70.7889672,32.1255841 70.5291522,32.0983942 70.2783137,32.0466404 C70.1239522,34.2283599 68.3046963,35.9500584 66.0833162,35.9500584 C65.6616023,35.9500584 65.2543811,35.8880076 64.8702847,35.7725381 C63.512545,38.5932426 60.6270631,40.5394276 57.2870253,40.5394276 C54.0080118,40.5394276 51.167096,38.6637086 49.7787268,35.9267197 C48.823088,36.4302419 47.7340416,36.7149533 46.5784973,36.7149533 C43.1837919,36.7149533 40.36299,34.2577804 39.7976317,31.0249747 C38.9681719,32.0100091 37.7244532,32.635514 36.3346399,32.635514 C33.8312932,32.635514 31.8019296,30.6061505 31.8019296,28.1028037 C31.8019296,27.9264003 31.8120067,27.7523505 31.8316164,27.5811986 C30.7815979,27.3292455 29.6843664,27.1962617 28.5560748,27.1962617 C20.7956998,27.1962617 14.5046729,33.4872886 14.5046729,41.2476636 C14.5046729,45.4690342 16.3661732,49.2556282 19.3130863,51.8313581 L18.9024681,52.2305557 C17.7657001,52.4631447 16.9041297,52.5794393 16.317757,52.5794393 C7.30570866,52.5794393 5.64881475e-13,39.8344783 5.64881475e-13,30.8224299 C5.64881475e-13,22.6658984 5.9844792,15.9071169 13.8021282,14.6973948 C13.2322955,10.580693 16.4501025,6.54106999 21.2186215,5.52749 C23.4566478,5.05178283 25.6537376,5.32394112 27.4746132,6.15952939 L27.4607193,5.95237853 L27.4607193,5.95237853 L27.4561258,5.73671145 C27.4561258,2.99085297 29.6820839,0.76489486 32.4279424,0.76489486 C34.9017858,0.76489486 36.9536333,2.57167411 37.3358834,4.93763113 C37.8197168,4.71382501 38.3600986,4.58936916 38.9295487,4.58936916 C39.3128223,4.58936916 39.6829278,4.64574875 40.0320241,4.75066692 C40.9288284,1.99343171 43.5208674,0 46.5784973,0 Z" id="Combined-Shape"></path>
                            <path d="M15.3218239,61.7091466 C18.2789023,61.7091466 20.6760879,59.311961 20.6760879,56.3548826 C20.6760879,53.3978042 18.2789023,51.0006186 15.3218239,51.0006186 C12.3647456,51.0006186 9.9675599,53.3978042 9.9675599,56.3548826" id="Oval" stroke="#041F74" stroke-linecap="round" stroke-linejoin="round" transform="translate(15.321824, 56.354883) scale(-1, 1) rotate(40.000000) translate(-15.321824, -56.354883) "></path>
                        </g>
                    </g>
                    <g id="Shadow-woman" opacity="0.2" transform="translate(0.000000, 53.000000)">
                        <g id="Woman-bottom" transform="translate(31.959104, 192.000000)" fill="#041F74">
                            <path d="M67.8230186,0 C84.4841228,0 97.9906164,13.4314575 97.9906164,30 C97.9906164,30.3347384 97.9851034,30.6681964 97.9741629,31.000289 L98,31 L100.488667,176 L53.2226667,176 L51.331,131.908 L46.5406667,176 L0.346666667,176 L22,2 L50.8364864,5.20425528 C55.6746011,1.92024539 61.5233084,0 67.8230186,0 Z" id="Combined-Shape"></path>
                        </g>
                        <g id="Woman-top" fill="#041F74">
                            <path d="M102,0 C122.106841,0 138.913657,14.1290899 143.033541,33.0003645 L143.153846,33 L164.598307,99.8148512 C166.146185,103.570647 167,107.685614 167,112 C167,129.673112 152.673112,144 135,144 C119.259754,144 106.173819,132.635539 103.499739,117.664157 C100.826181,132.635539 87.7402463,144 72,144 C54.326888,144 40,129.673112 40,112 C40,99.999135 46.6061877,89.5412277 56.3803946,84.0644469 L56,84 L63.2611176,58.2547066 C61.1607138,53.2549195 60,47.7630093 60,42 C60,18.8040405 78.8040405,0 102,0 Z M95.9242038,90.7478351 C99.7576992,95.0601895 102.442911,100.416051 103.500261,106.335843 C104.380026,101.407379 106.38862,96.8697878 109.248781,92.999811 Z" id="Combined-Shape"></path>
                            <path d="M111,77 C111,83.7743251 114.980417,89.6189741 120.730045,92.3227424 L120.730769,109.576923 L82.6538462,109.576923 L82.6533605,93.0143027 C89.0674259,92.3777236 94.0769231,86.9661849 94.0769231,80.3846154 C94.0769231,73.8030459 89.0674259,68.3915072 82.6533605,67.7549281 L82.6538462,65.5769231 L115.437617,65.5760199 C112.6816,68.5864651 111,72.5968532 111,77 Z" id="Combined-Shape"></path>
                            <path d="M6.60651751,235.17662 C11.220174,229.760833 14.4341121,225.930611 16.2483317,223.685954 C17.9782184,221.545638 19.8189399,220.178663 21.7704963,219.585027 C21.9858102,219.519539 22.1964544,219.439582 22.400994,219.345708 L29.4009793,216.133056 C30.1566026,215.786262 31.0502886,216.117683 31.3970828,216.873306 C31.4874917,217.070296 31.5342962,217.284487 31.5342962,217.501233 L31.5342962,217.501233 L31.5342962,217.501233 C26.429128,222.370634 23.8765439,224.805334 23.8765439,224.805334 C29.5841447,223.429155 35.5561419,220.28241 41.7925355,215.3651 C43.1709056,214.278175 45.1694113,214.514527 46.256275,215.892945 C46.833993,216.625638 47.0605809,217.575174 46.8759584,218.489784 L45.3949152,225.826794 C45.1492567,227.043773 44.4596205,228.125831 43.4602028,228.862411 L33.355346,236.309782 C32.7936785,236.723736 32.2107337,237.108015 31.6089027,237.461041 L12.562231,248.633586 L12.562231,248.633586 L6.60651751,235.17662 Z" id="Rectangle" stroke="#041F74" stroke-width="2" stroke-linejoin="round" transform="translate(26.772670, 231.657985) rotate(140.000000) translate(-26.772670, -231.657985) "></path>
                            <path d="M124,91.7195909 C136.150264,91.7195909 146,101.569326 146,113.719591 C146,114.737305 145.930896,115.73888 145.797123,116.719877 L146,116.719591 L139,211.719591 L51.653,202.525591 L45,226.719591 L16,206.719591 L36,166.719591 L56,108.719591 L56.2234886,108.719672 C57.6709049,99.0971061 65.973897,91.7195909 76,91.7195909 C77.5340052,91.7195909 79.0276735,91.8922937 80.4626221,92.2193166 L82.5586219,92.2191443 C84.2947829,98.2821674 89.8791836,102.719591 96.5,102.719591 C100.48093,102.719591 104.087162,101.115323 106.707465,98.5180219 C108.800873,96.4429902 112.759743,93.4053264 118.272391,92.2196595 L119.3135,92.2198256 C120.823686,91.892172 122.391689,91.7195909 124,91.7195909 Z" id="Combined-Shape" stroke="#041F74" stroke-width="2" stroke-linejoin="round"></path>
                        </g>
                    </g>
                    <g id="Shadow-woman" opacity="0.2" transform="translate(140.000000, 23.000000)">
                        <g id="Woman-bottom" transform="translate(31.959104, 192.000000)" fill="#041F74">
                            <path d="M67.8230186,0 C84.4841228,0 97.9906164,13.4314575 97.9906164,30 C97.9906164,30.3347384 97.9851034,30.6681964 97.9741629,31.000289 L98,31 L100.488667,176 L53.2226667,176 L51.331,131.908 L46.5406667,176 L0.346666667,176 L22,2 L50.8364864,5.20425528 C55.6746011,1.92024539 61.5233084,0 67.8230186,0 Z" id="Combined-Shape"></path>
                        </g>
                        <g id="Woman-top" fill="#041F74">
                            <circle id="Oval" cx="102" cy="42" r="42"></circle>
                            <path d="M111,77 C111,83.7743251 114.980417,89.6189741 120.730045,92.3227424 L120.730769,109.576923 L82.6538462,109.576923 L82.6533605,93.0143027 C89.0674259,92.3777236 94.0769231,86.9661849 94.0769231,80.3846154 C94.0769231,73.8030459 89.0674259,68.3915072 82.6533605,67.7549281 L82.6538462,65.5769231 L115.437617,65.5760199 C112.6816,68.5864651 111,72.5968532 111,77 Z" id="Combined-Shape"></path>
                            <path d="M6.60651751,235.17662 C11.220174,229.760833 14.4341121,225.930611 16.2483317,223.685954 C17.9782184,221.545638 19.8189399,220.178663 21.7704963,219.585027 C21.9858102,219.519539 22.1964544,219.439582 22.400994,219.345708 L29.4009793,216.133056 C30.1566026,215.786262 31.0502886,216.117683 31.3970828,216.873306 C31.4874917,217.070296 31.5342962,217.284487 31.5342962,217.501233 L31.5342962,217.501233 L31.5342962,217.501233 C26.429128,222.370634 23.8765439,224.805334 23.8765439,224.805334 C29.5841447,223.429155 35.5561419,220.28241 41.7925355,215.3651 C43.1709056,214.278175 45.1694113,214.514527 46.256275,215.892945 C46.833993,216.625638 47.0605809,217.575174 46.8759584,218.489784 L45.3949152,225.826794 C45.1492567,227.043773 44.4596205,228.125831 43.4602028,228.862411 L33.355346,236.309782 C32.7936785,236.723736 32.2107337,237.108015 31.6089027,237.461041 L12.562231,248.633586 L12.562231,248.633586 L6.60651751,235.17662 Z" id="Rectangle" stroke="#041F74" stroke-width="2" stroke-linejoin="round" transform="translate(26.772670, 231.657985) rotate(140.000000) translate(-26.772670, -231.657985) "></path>
                            <path d="M124,91.7195909 C136.150264,91.7195909 146,101.569326 146,113.719591 C146,114.737305 145.930896,115.73888 145.797123,116.719877 L146,116.719591 L139,211.719591 L51.653,202.525591 L45,226.719591 L16,206.719591 L36,166.719591 L56,108.719591 L56.2234886,108.719672 C57.6709049,99.0971061 65.973897,91.7195909 76,91.7195909 C77.5340052,91.7195909 79.0276735,91.8922937 80.4626221,92.2193166 L82.5586219,92.2191443 C84.2947829,98.2821674 89.8791836,102.719591 96.5,102.719591 C100.48093,102.719591 104.087162,101.115323 106.707465,98.5180219 C108.800873,96.4429902 112.759743,93.4053264 118.272391,92.2196595 L119.3135,92.2198256 C120.823686,91.892172 122.391689,91.7195909 124,91.7195909 Z" id="Combined-Shape" stroke="#041F74" stroke-width="2" stroke-linejoin="round"></path>
                        </g>
                    </g>
                    <g id="Shadow-man-2" opacity="0.2" transform="translate(334.527732, 106.000000) scale(-1, 1) translate(-334.527732, -106.000000) translate(252.527732, 9.000000)" stroke-linejoin="round">
                        <path d="M95.8554572,56.5791255 L95.8548218,71.6495455 C94.435829,72.6396226 93.5074614,74.2842741 93.5074614,76.1457574 C93.5074614,78.0024655 94.4310721,79.6434528 95.8439111,80.6343369 C95.5424806,88.1478724 89.3555739,94.1470588 81.7674822,94.1470588 C73.9869085,94.1470588 67.6795072,87.8396576 67.6795072,80.0590838 L67.6820192,80.2690022 C71.4044159,78.300178 73.9408294,74.3885122 73.9408294,69.8844352 C73.9408294,65.3795538 71.4035098,61.4672951 67.6800246,59.4988134 L67.6795072,56.5791255 L95.8554572,56.5791255 L95.8554572,56.5791255 Z" id="Combined-Shape" stroke="#041F74" stroke-width="2" fill="#041F74"></path>
                        <path d="M113.729685,79.8823529 L113.729503,80.075272 C114.667025,79.9480654 115.62421,79.8823529 116.59682,79.8823529 C124.729904,79.8823529 131.784438,84.4773094 135.281541,91.2006108 L135.514706,90.8186275 L163.42669,146.45098 L139.708955,159.764706 L122.831,131.988353 L110.767925,194 L19.0196078,194 L20.914,177.832353 L12.4242513,177.833333 L12.1551378,177.084624 C5.11739665,174.938443 -3.12638804e-13,168.421722 -3.12638804e-13,160.715686 C-3.12638804e-13,157.702789 0.782268312,154.871695 2.15572736,152.412538 L21.9813677,96.0490196 L22.1950254,96.0486532 C23.5785274,86.8979986 31.5136919,79.8823529 41.0956004,79.8823529 C41.4162599,79.8823529 41.7350751,79.8902098 42.0518623,79.9057407 L42.0513121,79.8823529 L67.900182,79.8826333 C68.4772697,87.1366205 74.5759757,92.8442157 82.0143942,92.8442157 C89.4528127,92.8442157 95.5515187,87.1366205 96.1286064,79.8826333 L113.729685,79.8823529 Z" id="Combined-Shape" stroke="#041F74" stroke-width="2" fill="#041F74"></path>
                        <g id="Group-8" transform="translate(48.500000, 0.000000)" fill="#041F74" stroke="#041F74">
                            <circle id="Oval" cx="14.087975" cy="29.7412806" r="14.087975"></circle>
                            <circle id="Oval" cx="33.654607" cy="18.0013014" r="18.0013014"></circle>
                            <path d="M50.8732431,20.3492972 C61.0478917,20.3492972 63.3958876,43.55544 63.3958876,52.4385737 C63.3958876,65.4061966 52.8835521,75.918532 39.9159292,75.918532 C26.9483063,75.918532 16.4359708,65.4061966 16.4359708,52.4385737 C16.4359708,49.4542148 13.1888254,46.5169916 14.2041693,43.7632724 C14.3733974,43.304308 14.564807,42.8504412 14.7770026,42.4023034 C13.8361735,40.3723521 13.3053097,36.6309163 13.3053097,34.4372723 C13.3053097,27.0889526 19.2622998,21.1319625 26.6106195,21.1319625 C31.4092143,21.1319625 35.6144985,23.6722271 37.9550735,27.4813576 C38.6162015,27.4231613 39.2709668,27.3932847 39.9159292,27.3932847 C44.0004185,27.3932847 45.7859188,20.3492972 50.8732431,20.3492972 Z" id="Combined-Shape" stroke-width="2"></path>
                            <circle id="Oval" cx="49.3079125" cy="19.566632" r="14.087975"></circle>
                            <path d="M14.3711624,54.2870916 C17.3969411,54.2870916 19.8498193,51.8342133 19.8498193,48.8084346 C19.8498193,45.782656 17.3969411,43.3297777 14.3711624,43.3297777 C11.3453837,43.3297777 8.89250543,45.782656 8.89250543,48.8084346" id="Oval" stroke-width="2" stroke-linecap="round" transform="translate(14.371162, 48.808435) scale(-1, 1) rotate(40.000000) translate(-14.371162, -48.808435) "></path>
                        </g>
                    </g>
                    <g id="Forefront" transform="translate(52.959104, 0.000000)">
                        <g id="Men-bottom" transform="translate(26.000000, 253.000000)" stroke="#041F74" stroke-linejoin="round" stroke-width="2">
                            <g id="Group-5">
                                <path d="M35.5,0.5 C45.7850923,0.5 55.0340236,4.93633291 61.4376296,11.9998346 L74,12 L135.820388,84.9570937 C140.747864,88.1757113 144,93.711232 144,100 C144,101.022426 143.914039,102.024942 143.748893,103.000828 L144,103 L136.949,167 L89.325,167 L98.462,110.254 L64.099,78.546 L73.265,167 L18.962,167 L2.1670199,46.2038372 C1.08451451,42.8300946 0.5,39.2333076 0.5,35.5 C0.5,16.1700338 16.1700338,0.5 35.5,0.5 Z" id="Combined-Shape" fill="#004DF5"></path>
                                <line x1="63.9768564" y1="77.3766646" x2="60" y2="39" id="Rectangle" stroke-linecap="round"></line>
                            </g>
                        </g>
                        <path d="M100.79646,128.495575 L100.796076,144.342623 C99.303779,145.383714 98.3274336,147.113236 98.3274336,149.070796 C98.3274336,151.023103 99.298545,152.748593 100.784071,153.790572 C100.467923,161.691023 93.9618821,168 85.9823009,168 C77.8006666,168 71.1681416,161.367475 71.1681416,153.185841 L71.1705068,153.406726 C75.0849304,151.336463 77.7522124,147.223083 77.7522124,142.486726 C77.7522124,137.749561 75.0840207,133.635585 71.1685043,131.565667 L71.1681416,128.495575 L100.79646,128.495575 L100.79646,128.495575 Z" id="Combined-Shape" stroke="#041F74" stroke-width="2" fill="#EEC2AB" stroke-linejoin="round"></path>
                        <path d="M132.656716,113 L192.705563,163.266996 C198.249925,166.342385 202,172.235422 202,179 C202,188.830669 194.080009,196.820682 184.242758,196.997024 L183.910448,197 L131.262,197 L116.477612,273 L20,273 L21.992,256 L13.0646766,256 L12.7812487,255.212562 C5.38096547,252.955615 0,246.103093 0,238 C0,234.833839 0.821532101,231.858608 2.26405737,229.273851 L23.1144279,170 L23.3390284,170.000081 C24.7936457,160.377515 33.1379462,153 43.2139303,153 C43.5507415,153 43.8856176,153.008243 44.2183662,153.024539 L44.2189055,153 L71.4002493,153.001023 C72.0074341,160.628581 78.4203471,166.63 86.2419403,166.63 C94.0635335,166.63 100.476447,160.628581 101.083631,153.001023 L119.59204,153 L119.592504,153.202774 C120.578142,153.069069 121.584448,153 122.606965,153 C126.480204,153 130.120821,153.991039 133.286682,155.732183 L161.149,168.208 L122.606965,133 L132.656716,113 Z" id="Combined-Shape" stroke="#004DF5" stroke-width="2" fill="#FFFFFF" stroke-linejoin="round"></path>
                        <polygon id="Rectangle" fill="#3DBB56" points="37.978836 204 129.4 204 127.9 212 32 212"></polygon>
                        <polygon id="Rectangle" fill="#ECDB00" points="39.978836 192 131.4 192 129.9 200 34 200"></polygon>
                        <g id="Woman-bottom" transform="translate(294.000000, 247.000000)" stroke="#004DF5" stroke-linejoin="round" stroke-width="2">
                            <path d="M67,0 L112,5 L111.459096,8.03011472 C111.91122,8.0101091 112.365932,8 112.823019,8 C129.484123,8 142.990616,21.4314575 142.990616,38 C142.990616,38.3347384 142.985103,38.6681964 142.974163,39.000289 L143,39 L157.529,174 L82,174 L82,137.442 L72.397,174 L-1.053,174 L67,0 Z" id="Combined-Shape" fill="#FFFFFF"></path>
                            <line x1="82" y1="52" x2="82" y2="172" id="Rectangle" stroke-linecap="round"></line>
                        </g>
                        <g id="Woman-top" transform="translate(261.040896, 53.000000)">
                            <path d="M92,84 L99.2611176,58.2547066 C97.1607138,53.2549195 96,47.7630093 96,42 C96,18.8040405 114.804041,0 138,0 C158.106841,0 174.913657,14.1290899 179.033541,33.0003645 L179.153846,33 L196,84 L92,84 Z" id="Combined-Shape" stroke="#041F74" stroke-width="2" fill="#041F74" stroke-linejoin="round"></path>
                            <path d="M147,77 C147,83.7743251 150.980417,89.6189741 156.730045,92.3227424 L156.730769,109.576923 L118.653846,109.576923 L118.65336,93.0143027 C125.067426,92.3777236 130.076923,86.9661849 130.076923,80.3846154 C130.076923,73.8030459 125.067426,68.3915072 118.65336,67.7549281 L118.653846,65.5769231 L151.437617,65.5760199 C148.6816,68.5864651 147,72.5968532 147,77 Z" id="Combined-Shape" stroke="#041F74" stroke-width="2" fill="#EEC2AB" stroke-linejoin="round"></path>
                            <path d="M132.615385,75.3076923 C146.634921,75.3076923 158,63.9426129 158,49.9230769 C158,47.4396947 154.024699,45.7111736 152.923077,42.7307692 C151.536015,38.9781156 152.731463,33.9882394 149.980343,31.4071096 C145.440041,27.1473504 139.332382,24.5384615 132.615385,24.5384615 C125.00041,24.5384615 118.168585,19.4299896 113.51581,24.7402245 C109.602601,29.2063878 107.230769,43.5185161 107.230769,49.9230769 C107.230769,63.9426129 118.595849,75.3076923 132.615385,75.3076923 Z" id="Oval" stroke="#041F74" stroke-width="2" fill="#EEC2AB" stroke-linejoin="round"></path>
                            <path d="M158.846154,56.6923077 C162.117379,56.6923077 164.769231,54.0404558 164.769231,50.7692308 C164.769231,47.4980057 162.117379,44.8461538 158.846154,44.8461538 C155.574929,44.8461538 152.923077,47.4980057 152.923077,50.7692308" id="Oval" stroke="#041F74" stroke-width="2" fill="#EEC2AB" stroke-linecap="round" stroke-linejoin="round" transform="translate(158.846154, 50.769231) rotate(40.000000) translate(-158.846154, -50.769231) "></path>
                            <ellipse id="Oval" fill="#041F74" transform="translate(136.993493, 47.279093) rotate(70.000000) translate(-136.993493, -47.279093) " cx="136.993493" cy="47.2790932" rx="2.11538462" ry="2.53846154"></ellipse>
                            <path d="M134.730769,40.1923077 C135.576923,38.9230769 141.5,37.2307692 144.884615,40.1923077" id="Path-10" stroke="#041F74" stroke-width="2" stroke-linecap="round" stroke-linejoin="round"></path>
                            <path d="M120.346154,38.0769231 C117.525641,36.3846154 114.846154,36.1025641 112.307692,37.2307692" id="Path-11" stroke="#041F74" stroke-width="2" stroke-linecap="round" stroke-linejoin="round"></path>
                            <path d="M123.353988,50.3949994 C123.388382,50.809866 121.409591,51.8556725 121.178164,52.5708236 C120.815526,53.6914347 121.540801,54.7047801 124.804537,55.4719225" id="Path-12" stroke="#041F74" stroke-linecap="round" stroke-linejoin="round"></path>
                            <path d="M122.461538,60.9230769 C126.410256,62.8974359 129.512821,62.8974359 131.769231,60.9230769" id="Path-21" stroke="#041F74" stroke-width="2" stroke-linecap="round" stroke-linejoin="round"></path>
                            <ellipse id="Oval" fill="#041F74" transform="translate(116.881240, 45.136786) rotate(-50.000000) translate(-116.881240, -45.136786) " cx="116.88124" cy="45.1367856" rx="2.11538462" ry="2.53846154"></ellipse>
                            <path d="M109.346154,19.0384615 C111.461538,26.2307692 119.442003,36.3846154 133.461538,36.3846154 C147.481074,36.3846154 151.230769,42.3076923 151.230769,49.9230769 C151.230769,53.5622983 158.836001,42.5157676 156.411835,29.9883894 C153.763225,16.3011485 140.781453,9.30769231 133.461538,9.30769231" id="Oval" stroke="#041F74" stroke-width="2" fill="#041F74" stroke-linecap="round" stroke-linejoin="round"></path>
                            <path d="M0,184 L6.14634146,168 L37.902439,176 C40.1654595,176 42,177.790861 42,180 C42,182.209139 40.1654595,184 37.902439,184 L37.902439,184 L0,184 Z" id="Combined-Shape" stroke="#041F74" fill="#EEC2AB" stroke-linejoin="round" transform="translate(21.000000, 176.000000) scale(-1, 1) translate(-21.000000, -176.000000) "></path>
                            <path d="M160,91.7195909 C172.150264,91.7195909 182,101.569326 182,113.719591 C182,114.737305 181.930896,115.73888 181.797123,116.719877 L182,116.719591 L175,211.719591 L80,201.719591 L84.588,186.719591 L32,186.719591 L22,166.719591 L72,166.719591 L92,108.719591 L92.2234886,108.719672 C93.6709049,99.0971061 101.973897,91.7195909 112,91.7195909 C113.534005,91.7195909 115.027673,91.8922937 116.462622,92.2193166 L118.558622,92.2191443 C120.294783,98.2821674 125.879184,102.719591 132.5,102.719591 C136.48093,102.719591 140.087162,101.115323 142.707465,98.5180219 C144.800873,96.4429902 148.759743,93.4053264 154.272391,92.2196595 L155.3135,92.2198256 C156.823686,91.892172 158.391689,91.7195909 160,91.7195909 Z" id="Combined-Shape" stroke="#041F74" stroke-width="2" fill="#ECDB00" stroke-linejoin="round"></path>
                            <line x1="80.9821884" y1="200.848579" x2="106" y2="117.719591" id="Rectangle" stroke="#041F74" stroke-width="2" stroke-linecap="round" stroke-linejoin="round"></line>
                        </g>
                        <g id="Tablet" transform="translate(107.000000, 63.000000)">
                            <g id="Group-2" stroke-linejoin="round">
                                <rect id="Rectangle" stroke="#041F74" stroke-width="3" fill="#FFFFFF" x="0" y="0" width="245" height="354" rx="14"></rect>
                                <rect id="Rectangle" stroke="#004DF5" stroke-width="2" fill="#CEDAF3" x="9" y="25" width="227" height="303"></rect>
                                <rect id="Rectangle" stroke="#CEDAF3" fill="#FFFFFF" x="42.5" y="39.5" width="160" height="276"></rect>
                                <rect id="Rectangle" stroke="#CEDAF3" fill="#FFFFFF" x="32.5" y="47.5" width="180" height="276"></rect>
                                <rect id="Rectangle" stroke="#CEDAF3" fill="#FFFFFF" x="22.5" y="55.5" width="200" height="272"></rect>
                                <rect id="Rectangle" stroke="#004DF5" stroke-width="2" x="9" y="25" width="227" height="303"></rect>
                                <circle id="Oval" fill="#004DF5" cx="122.459302" cy="13.377907" r="3.0872093"></circle>
                            </g>
                            <g id="Logo" transform="translate(111.000000, 43.000000)">
                                <circle id="Oval-Copy" fill="#FFFFFF" cx="11.9078073" cy="11.9078073" r="11.7300788"></circle>
                                <path d="M3.12946527,18.7845701 C5.29308782,17.0521794 9.54029448,17.4106224 11.890801,19.3829315 C13.8927842,21.062795 17.1752438,21.3400622 19.2902933,20.3116045 C19.2835014,20.2615486 16.4394893,23.0036557 11.3746219,22.9269723 C6.30975447,22.8502889 3.73229781,19.5501314 3.12946527,18.7845701 Z" id="Path" fill="#27973D"></path>
                                <path d="M5.09230695,18.2364862 C5.09230695,16.4109058 5.01117005,15.0721468 5.33571768,13.6116824 C5.82253914,11.4209859 6.79618204,10.3256376 6.43106595,9.83881613 C6.06594986,9.35199468 5.21401232,9.35199468 4.97060159,9.5954054 C4.72719086,9.83881613 4.6054855,9.35199468 4.97060159,8.98687859 C5.33571768,8.6217625 6.18765523,7.89153031 7.40470886,7.76982495 C8.6217625,7.64811959 8.6217625,7.89153031 9.5954054,7.16129813 C10.5690483,6.43106595 13.489977,5.09230695 16.5326111,6.43106595 C19.5752452,7.76982495 19.3318345,8.74346786 19.6969506,8.98687859 C20.0620667,9.23028931 20.5488881,9.35199468 20.4271828,9.71711077 C20.3240547,10.026495 19.737519,9.96052149 19.0884238,9.71711077 C19.8186559,10.1227953 20.183772,10.4473429 20.183772,10.6907537 C20.183772,11.0558698 19.8186559,10.9341644 18.9667184,10.6907537 C18.1147808,10.4473429 15.9240843,10.3256376 14.5853253,11.1775751 C13.2465663,12.0295127 13.9767985,11.9078073 13.489977,12.7597449 C13.0031556,13.6116824 12.0295127,14.0985039 11.4209859,14.0985039 C10.812459,14.0985039 10.7491983,13.9183539 11.2992805,13.3682717 C11.6643966,13.0031556 11.9078073,12.7191764 11.6643966,12.151218 C9.5954054,13.1248609 7.64811959,15.1938521 7.2830035,18.1147808 C7.06148691,19.8869135 5.09230695,20.030508 5.09230695,18.2364862 Z" id="Path-2" fill="#27973D"></path>
                                <circle id="Oval" stroke="#27973D" stroke-width="2" cx="11.9078073" cy="11.9078073" r="10.7300788"></circle>
                            </g>
                            <line x1="58.5" y1="83.5" x2="138.5" y2="83.5" id="Line-2" stroke="#004DF5" stroke-width="3" stroke-linecap="round" stroke-linejoin="round"></line>
                            <circle id="Oval" fill="#004DF5" cx="43.6017442" cy="83.6017442" r="3.60174419"></circle>
                            <line x1="58" y1="95" x2="203" y2="95" id="Line-2" stroke="#004DF5" stroke-width="2" stroke-linecap="round" stroke-linejoin="round"></line>
                            <line x1="58" y1="104" x2="203" y2="104" id="Line-2" stroke="#004DF5" stroke-width="2" stroke-linecap="round" stroke-linejoin="round"></line>
                            <line x1="58" y1="112" x2="172" y2="112" id="Line-2" stroke="#004DF5" stroke-width="2" stroke-linecap="round" stroke-linejoin="round"></line>
                            <g id="Group-4" transform="translate(58.000000, 124.000000)">
                                <rect id="Rectangle" stroke="#CEDAF3" stroke-width="2" fill="#CEDAF3" stroke-linejoin="round" x="0" y="0" width="10.2906977" height="10.2906977"></rect>
                                <rect id="Rectangle" stroke="#CEDAF3" stroke-width="2" fill="#CEDAF3" stroke-linejoin="round" x="37.0465116" y="0" width="10.2906977" height="10.2906977"></rect>
                                <g id="Group-3" transform="translate(18.523256, 0.000000)" stroke-linecap="round">
                                    <rect id="Rectangle" stroke="#3DBB56" stroke-width="2" fill="#3DBB56" stroke-linejoin="round" x="0" y="0" width="10.2906977" height="10.2906977"></rect>
                                    <polyline id="Path" stroke="#FFFFFF" points="2.05813953 5.14534884 4.70431894 7.71802326 9.26162791 2.05813953"></polyline>
                                </g>
                                <rect id="Rectangle" stroke="#CEDAF3" stroke-width="2" fill="#CEDAF3" stroke-linejoin="round" x="55.5697674" y="0" width="10.2906977" height="10.2906977"></rect>
                            </g>
                            <line x1="58.5" y1="163.5" x2="179.5" y2="163.5" id="Line-2" stroke="#004DF5" stroke-width="3" stroke-linecap="round" stroke-linejoin="round"></line>
                            <circle id="Oval" fill="#004DF5" cx="43.6017442" cy="163.601744" r="3.60174419"></circle>
                            <line x1="58" y1="175" x2="203" y2="175" id="Line-2" stroke="#004DF5" stroke-width="2" stroke-linecap="round" stroke-linejoin="round"></line>
                            <line x1="58" y1="183" x2="203" y2="183" id="Line-2" stroke="#004DF5" stroke-width="2" stroke-linecap="round" stroke-linejoin="round"></line>
                            <line x1="58" y1="191" x2="183" y2="191" id="Line-2" stroke="#004DF5" stroke-width="2" stroke-linecap="round" stroke-linejoin="round"></line>
                            <g id="Group-4" transform="translate(58.000000, 203.000000)" fill="#CEDAF3" stroke="#CEDAF3" stroke-linejoin="round" stroke-width="2">
                                <rect id="Rectangle" x="0" y="0" width="10.2906977" height="10.2906977"></rect>
                                <rect id="Rectangle" x="18.5232558" y="0" width="10.2906977" height="10.2906977"></rect>
                                <rect id="Rectangle" x="37.0465116" y="0" width="10.2906977" height="10.2906977"></rect>
                                <rect id="Rectangle" x="55.5697674" y="0" width="10.2906977" height="10.2906977"></rect>
                            </g>
                            <path d="M100,206.889757 L114.495183,218.749452 L109.322075,220.040316 L112.517345,226.590989 L107.945093,228.821026 L104.677587,222.124167 L100,225.291938 L100,206.889757 Z" id="Combined-Shape" stroke="#004DF5" stroke-width="2" fill="#FFFFFF" stroke-linejoin="round"></path>
                            <line x1="58.5" y1="242.5" x2="159.5" y2="242.5" id="Line-2" stroke="#004DF5" stroke-width="3" stroke-linecap="round" stroke-linejoin="round"></line>
                            <circle id="Oval" fill="#004DF5" cx="43.6017442" cy="242.601744" r="3.60174419"></circle>
                            <line x1="58" y1="254" x2="203" y2="254" id="Line-2" stroke="#004DF5" stroke-width="2" stroke-linecap="round" stroke-linejoin="round"></line>
                            <line x1="58" y1="262" x2="203" y2="262" id="Line-2" stroke="#004DF5" stroke-width="2" stroke-linecap="round" stroke-linejoin="round"></line>
                        </g>
                        <g id="Group-8" transform="translate(51.000000, 69.000000)">
                            <circle id="Oval" stroke="#041F74" fill="#041F74" stroke-linejoin="round" cx="14.8141593" cy="31.2743363" r="14.8141593"></circle>
                            <circle id="Oval" stroke="#041F74" fill="#041F74" stroke-linejoin="round" cx="35.3893805" cy="18.9292035" r="18.9292035"></circle>
                            <path d="M53.4955752,21.3982301 C64.1946903,21.3982301 66.6637168,45.8005658 66.6637168,55.1415929 C66.6637168,68.77765 55.6095084,79.8318584 41.9734513,79.8318584 C28.3373942,79.8318584 17.2831858,68.77765 17.2831858,55.1415929 C17.2831858,52.0034011 13.8686617,48.9147747 14.9363429,46.0191112 C15.1142035,45.5367346 15.3153653,45.0597129 15.5383629,44.5887089 C14.5494198,42.4536935 13.9911504,38.5191935 13.9911504,36.2123894 C13.9911504,28.4852904 20.2552019,22.2212389 27.9823009,22.2212389 C33.0284413,22.2212389 37.4506397,24.8926518 39.9118064,28.8983877 C40.6070517,28.8367116 41.2954032,28.8053097 41.9734513,28.8053097 C46.2684813,28.8053097 48.1460177,21.3982301 53.4955752,21.3982301 Z" id="Combined-Shape" stroke="#041F74" stroke-width="2" fill="#EEC2AB" stroke-linejoin="round"></path>
                            <circle id="Oval" stroke="#041F74" fill="#041F74" stroke-linejoin="round" cx="51.8495575" cy="20.5752212" r="14.8141593"></circle>
                            <path d="M66.6637168,55.1415929 C66.6637168,68.77765 55.6095084,79.8318584 41.9734513,79.8318584 C29.1980419,79.8318584 18.6888563,70.1290002 17.4131615,57.6905506 L17.2831858,57.6106195 C21.3982301,60.079646 29.2168142,67.4867257 32.920354,62.5486726 C32.5088496,70.7787611 39.5044248,72.4247788 46.5,71.6017699 C53.4955752,70.7787611 59.2566372,66.2522124 58.4336283,60.079646 C63.2879856,62.1022949 66.5516495,59.750537 66.6608877,55.3699712 L66.6637168,55.1415929 L66.6637168,55.1415929 Z" id="Combined-Shape" stroke="#041F74" stroke-width="2" fill="#041F74" stroke-linejoin="round"></path>
                            <path d="M15.111944,57.0853953 C18.2936906,57.0853953 20.8730059,54.50608 20.8730059,51.3243333 C20.8730059,48.1425867 18.2936906,45.5632714 15.111944,45.5632714 C11.9301973,45.5632714 9.350882,48.1425867 9.350882,51.3243333" id="Oval" stroke="#041F74" stroke-width="2" fill="#EEC2AB" stroke-linecap="round" stroke-linejoin="round" transform="translate(15.111944, 51.324333) scale(-1, 1) rotate(40.000000) translate(-15.111944, -51.324333) "></path>
                            <ellipse id="Oval" fill="#041F74" cx="55.9646018" cy="44.6996681" rx="2.05752212" ry="2.31471239"></ellipse>
                            <ellipse id="Oval" fill="#041F74" cx="35.3893805" cy="46.3456858" rx="2.05752212" ry="2.31471239"></ellipse>
                            <circle id="Oval" stroke="#041F74" stroke-width="2" stroke-linecap="round" stroke-linejoin="round" cx="34.1548673" cy="46.5" r="7.40707965"></circle>
                            <line x1="26.3362832" y1="45.2654867" x2="16.460177" y2="43.619469" id="Line-3" stroke="#041F74" stroke-width="2" stroke-linecap="round" stroke-linejoin="round"></line>
                            <path d="M58.4336283,60.9026549 C58.4336283,56.8118377 52.6725664,54.7300885 48.2984967,57.3158028 C45.5705132,58.4082653 42.4091611,57.6106195 39.9401346,57.6106195 C37.471108,57.6106195 32.5330549,59.6681416 32.9445593,65.0176991" id="Oval" stroke="#041F74" stroke-width="2" stroke-linecap="round" stroke-linejoin="round"></path>
                            <circle id="Oval" stroke="#041F74" stroke-width="2" stroke-linecap="round" stroke-linejoin="round" cx="55.5530973" cy="44.8539823" r="7.40707965"></circle>
                            <path d="M47.9798519,44.3230899 C47.1284908,43.6261361 46.0400712,43.2079646 44.8539823,43.2079646 C43.4980374,43.2079646 42.2697385,43.7544822 41.3773448,44.6392581" id="Oval" stroke="#041F74" stroke-width="2" stroke-linecap="round" stroke-linejoin="round"></path>
                            <line x1="65.0176991" y1="40.3274336" x2="62.5486726" y2="41.9734513" id="Line-3" stroke="#041F74" stroke-width="2" stroke-linecap="round" stroke-linejoin="round"></line>
                            <path d="M39.1367863,61.1358548 C39.706132,61.0368238 40.5991035,61.2798889 41.7180824,61.6262462 C43.0073427,62.0253105 44.6332747,62.5349247 46.4019457,62.5349247 C48.2775333,62.5349247 49.7947281,62.1940551 50.9187191,61.9431963 C51.7912779,61.7484535 52.4520299,61.6186009 52.8884555,61.6755944 C54.0363225,63.1698291 53.7526175,63.8628591 53.2228283,64.5778484 C52.7978182,65.1514308 52.166994,65.7436675 51.3609879,66.2528417 C50.0957197,67.0521432 48.3959215,67.649969 46.4019457,67.649969 C44.1436384,67.649969 42.1018523,67.1131491 40.6228537,66.2568867 C39.0166885,65.3270016 38.0833616,64.0242429 38.0833616,62.6234203 C38.0833616,62.1886519 38.176668,61.8785921 38.3188458,61.6572498 C38.5030453,61.3704883 38.7733962,61.1990622 39.1367863,61.1358548 Z" id="Oval" stroke="#041F74" fill="#FFFFFF" stroke-linecap="round" stroke-linejoin="round" transform="translate(45.988792, 64.379899) rotate(-8.000000) translate(-45.988792, -64.379899) "></path>
                        </g>
                        <path d="M77.5359098,181.821386 C88.0293201,181.821386 96.5359098,172.867081 96.5359098,161.821386 C96.5359098,151.845004 89.5966127,143.574686 80.521678,142.066914" id="Oval" stroke="#004DF5" stroke-linecap="round" stroke-dasharray="1,3" transform="translate(87.035910, 161.944150) rotate(83.000000) translate(-87.035910, -161.944150) "></path>
                        <g id="Men-arm" transform="translate(0.000000, 153.000000)" stroke-linejoin="round" stroke-width="2">
                            <g id="Group-15" transform="translate(79.000000, 61.000000)" fill="#EEC2AB" stroke="#041F74">
                                <path d="M8.1415739,38.0658088 C11.7097942,30.1075129 14.1583332,24.7812617 15.487191,22.0870552 C16.8160487,19.3928488 18.4581048,17.6899747 20.4133593,16.9784332 C22.8263939,21.1579317 24.0329111,23.2476809 24.0329111,23.2476809 C30.8767111,21.6297799 38.2136788,17.9902224 46.0438144,12.3290084 C47.7368149,11.1049169 50.1015784,11.4850854 51.3256393,13.178108 C51.9600491,14.0555726 52.1880294,15.1628335 51.9518586,16.2195469 L50.0159833,24.8813524 C49.7596044,26.0284839 49.1072765,27.0486198 48.1735506,27.7626204 L36.6822592,36.5497699 C35.6445199,37.3433074 34.5315285,38.033261 33.3592348,38.6097434 L10.7073385,49.7489472 L10.7073385,49.7489472 L8.1415739,38.0658088 Z" id="Rectangle" transform="translate(30.656976, 29.248947) rotate(30.000000) translate(-30.656976, -29.248947) "></path>
                            </g>
                            <path d="M43.4623656,0 C54.6268315,0 63.6774194,9.04124 63.6774194,20.1941748 C63.6774194,23.4411256 62.9103231,26.5090965 61.5472947,29.2271001 L61.655914,29.2815534 L40.853,75.83 L63.6774194,75.7281553 L94,76 L83.8924731,104 L19.2043011,104 L19.1887822,103.973269 C18.8592914,103.991013 18.5274705,104 18.1935484,104 C8.14552907,104 0,95.862884 0,85.8252427 C0,82.6295606 0.825625519,79.6265144 2.2754152,77.0173576 L23.9623352,14.8515352 C24.2035539,13.9709112 24.5029506,13.1143 24.8561416,12.2860805 L25.2688172,11.1067961 L25.3774364,11.1612495 C28.6962671,4.54319658 35.5482076,0 43.4623656,0 Z" id="Combined-Shape" stroke="#004DF5" fill="#FFFFFF"></path>
                        </g>
                        <g id="Group-16" transform="translate(107.000000, 15.000000)">
                            <path d="M14,44 C6.2680135,44 9.46895252e-16,37.7319865 0,30 L0,14 C-9.46895252e-16,6.2680135 6.2680135,1.42034288e-15 14,0 L66,0 C73.7319865,-1.42034288e-15 80,6.2680135 80,14 L80,30 C80,37.7319865 73.7319865,44 66,44 L26,44 L13,56 L13,44 L14,44 Z" id="Combined-Shape" stroke="#041F74" stroke-width="2" fill="#FFFFFF" stroke-linejoin="round"></path>
                            <line x1="16" y1="18" x2="49" y2="18" id="Line-2" stroke="#004DF5" stroke-width="2" stroke-linecap="round" stroke-linejoin="round"></line>
                            <g id="Group-11" transform="translate(57.000000, 14.000000)">
                                <path d="M3.375,10 C3.375,9.33333333 3.375,8.75 3.375,8.25 C3.375,7.5 5.05136772,6.41528867 5.6515494,5.86660416 C6.32658843,5.24948525 6.75,4.36168916 6.75,3.375 C6.75,1.51103897 5.23896103,0 3.375,0 C1.51103897,0 0,1.51103897 0,3.375" id="Oval" stroke="#004DF5" stroke-width="2" stroke-linecap="round" stroke-linejoin="round"></path>
                                <circle id="Oval" fill="#004DF5" cx="3.5" cy="13.5" r="1.5"></circle>
                            </g>
                            <line x1="16" y1="26" x2="49" y2="26" id="Line-2" stroke="#004DF5" stroke-width="2" stroke-linecap="round" stroke-linejoin="round"></line>
                        </g>
                        <g id="Group-14" transform="translate(297.000000, 0.000000)">
                            <path d="M14,44 C6.2680135,44 9.46895252e-16,37.7319865 0,30 L0,14 C-9.46895252e-16,6.2680135 6.2680135,1.42034288e-15 14,0 L66,0 C73.7319865,-1.42034288e-15 80,6.2680135 80,14 L80,30 C80,37.7319865 73.7319865,44 66,44 L26,44 L13,56 L13,44 L14,44 Z" id="Combined-Shape" stroke="#041F74" stroke-width="2" fill="#FFFFFF" stroke-linejoin="round" transform="translate(40.000000, 28.000000) scale(-1, 1) translate(-40.000000, -28.000000) "></path>
                            <line x1="18" y1="18" x2="51" y2="18" id="Line-2" stroke="#004DF5" stroke-width="2" stroke-linecap="round" stroke-linejoin="round"></line>
                            <g id="Group-11" transform="translate(61.000000, 14.000000)">
                                <line x1="1.5" y1="0.5" x2="1.5" y2="8.5" id="Line-2" stroke="#004DF5" stroke-width="3" stroke-linecap="round" stroke-linejoin="round"></line>
                                <circle id="Oval" fill="#004DF5" cx="1.5" cy="13.5" r="1.5"></circle>
                            </g>
                            <line x1="18" y1="26" x2="51" y2="26" id="Line-2" stroke="#004DF5" stroke-width="2" stroke-linecap="round" stroke-linejoin="round"></line>
                        </g>
                        <path d="" id="Path-9" stroke="#979797"></path>
                        <g id="search" transform="translate(262.668605, 107.308140)">
                            <g id="Group-18" transform="translate(39.649942, 69.500700) rotate(-20.000000) translate(-39.649942, -69.500700) translate(32.149942, 44.500700)">
                                <path d="M3.45480577,2.84645271 L11.6873639,2.84645271 L11.6873639,45.1545922 C11.6873639,47.3637312 9.89650291,49.1545922 7.68736391,49.1545922 L7.45480577,49.1545922 C5.24566677,49.1545922 3.45480577,47.3637312 3.45480577,45.1545922 L3.45480577,2.84645271 L3.45480577,2.84645271 Z" id="Rectangle" stroke="#041F74" stroke-width="2" fill="#926250" stroke-linejoin="round"></path>
                                <path d="M0.367596471,0.788313177 L14.7745732,0.788313177 L14.7745732,8.13715039 C14.7745732,10.8985741 12.535997,13.1371504 9.77457322,13.1371504 L5.36759647,13.1371504 C2.60617272,13.1371504 0.367596471,10.8985741 0.367596471,8.13715039 L0.367596471,0.788313177 L0.367596471,0.788313177 Z" id="Rectangle" fill="#041F74"></path>
                            </g>
                            <path d="M25.3313953,0.691860465 C39.1385141,0.691860465 50.3313953,11.8847417 50.3313953,25.6918605 C50.3313953,39.4989792 39.1385141,50.6918605 25.3313953,50.6918605 C11.5242766,50.6918605 0.331395349,39.4989792 0.331395349,25.6918605 C0.331395349,11.8847417 11.5242766,0.691860465 25.3313953,0.691860465 Z M25.3313953,6.69186047 C14.8379851,6.69186047 6.33139535,15.1984502 6.33139535,25.6918605 C6.33139535,36.1852707 14.8379851,44.6918605 25.3313953,44.6918605 C35.8248056,44.6918605 44.3313953,36.1852707 44.3313953,25.6918605 C44.3313953,15.1984502 35.8248056,6.69186047 25.3313953,6.69186047 Z" id="Combined-Shape" fill="#041F74"></path>
                            <circle id="Oval" fill-opacity="0.7" fill="#3DBB56" cx="25.3313953" cy="25.6918605" r="19"></circle>
                            <polyline id="Path" stroke="#FFFFFF" stroke-width="3" stroke-linecap="round" points="16.5813953 27.0010571 23.5977801 34.0174419 34.8239958 18.5813953"></polyline>
                        </g>
                        <g id="Woman-arm" transform="translate(286.040896, 144.719591)" stroke="#041F74" stroke-linejoin="round" stroke-width="2">
                            <path d="M0,49.6486542 C3.3809258,41.957865 5.70094193,36.8106482 6.96004841,34.2070036 C8.13520077,31.7769636 10.154077,30.2316677 13.0166772,29.5711158 C13.3853659,29.4860413 13.76252,29.443091 14.1408969,29.443091 L20.451001,29.443091 C21.8998728,29.443091 23.0744154,30.6176336 23.0744154,32.0665053 L23.0744154,32.0665053 L23.0744154,32.0665053 C18.1428419,34.2677846 15.6770551,35.3684243 15.6770551,35.3684243 C22.0561422,33.8303404 28.7307314,30.313387 35.7008228,24.8175642 C37.2413706,23.6028098 39.4749788,23.8669652 40.6897003,25.4075389 C41.3353809,26.2264249 41.5886244,27.2876645 41.3822831,28.3098684 L39.6820905,36.7325323 C39.4364321,37.9495113 38.7467959,39.0315695 37.7473781,39.7681495 L26.1718248,48.2994375 C25.6101572,48.7133915 25.0272124,49.09767 24.4253814,49.4506967 L3.03164655,62 L3.03164655,62 L0,49.6486542 Z" id="Rectangle" fill="#EEC2AB" transform="translate(20.727273, 43.000000) scale(-1, 1) translate(-20.727273, -43.000000) "></path>
                            <path d="M134,0 C146.702549,0 157,10.408176 157,23.2473118 C157,29.7881382 154.327465,35.6980488 150.025906,39.9223122 L121.029422,84.0918325 C118.047271,89.9742244 111.988769,94 105,94 C102.899064,94 100.882196,93.6361906 99.007698,92.9675006 L99,92.9892473 L98.7031483,92.855709 C97.9961217,92.5888201 97.3101509,92.2782869 96.6484442,91.927352 L33,63.172043 L42,38.4086022 L95.06,54.696 L112,16.172043 L112.075555,16.2007724 C115.028373,6.8064705 123.727774,0 134,0 Z" id="Combined-Shape" fill="#ECDB00"></path>
                        </g>
                    </g>
                </g>
            </g>
        </g>
    </g>
</svg>